<svg xmlns="http://www.w3.org/2000/svg" width="1200" height="630" viewBox="0 0 1200 630">
  <defs>
    <linearGradient id="bg" x1="0%" y1="0%" x2="100%" y2="100%">
      <stop offset="0%" stop-color="#1a365d"/>
      <stop offset="55%" stop-color="#234e7a"/>
      <stop offset="100%" stop-color="#2b6cb0"/>
    </linearGradient>
    <linearGradient id="accent" x1="0%" y1="0%" x2="100%" y2="0%">
      <stop offset="0%" stop-color="#63b3ed" stop-opacity="0.15"/>
      <stop offset="100%" stop-color="#90cdf4" stop-opacity="0.05"/>
    </linearGradient>
  </defs>

  <rect width="1200" height="630" fill="url(#bg)"/>
  <rect width="1200" height="630" fill="url(#accent)"/>

  <circle cx="1050" cy="120" r="180" fill="#2b6cb0" opacity="0.25"/>
  <circle cx="150" cy="520" r="220" fill="#1a365d" opacity="0.4"/>

  <g transform="translate(120, 175) scale(5.833)">
    <circle cx="24" cy="24" r="23" fill="#1a365d" stroke="#63b3ed" stroke-width="1.2"/>
    <line x1="10" y1="20" x2="38" y2="20" stroke="#e2e8f0" stroke-width="2" stroke-linecap="round"/>
    <line x1="24" y1="16" x2="24" y2="36" stroke="#e2e8f0" stroke-width="2" stroke-linecap="round"/>
    <line x1="18" y1="36" x2="30" y2="36" stroke="#e2e8f0" stroke-width="2.5" stroke-linecap="round"/>
    <line x1="12" y1="20" x2="12" y2="27" stroke="#e2e8f0" stroke-width="1.2"/>
    <line x1="36" y1="20" x2="36" y2="27" stroke="#e2e8f0" stroke-width="1.2"/>
    <path d="M6,27 Q12,32 18,27" fill="none" stroke="#e2e8f0" stroke-width="1.5" stroke-linecap="round"/>
    <path d="M30,27 Q36,32 42,27" fill="none" stroke="#e2e8f0" stroke-width="1.5" stroke-linecap="round"/>
    <polygon points="24,14 21,18 27,18" fill="#e2e8f0"/>
    <text x="14" y="26" font-family="Georgia, serif" font-size="14" font-weight="bold" fill="#63b3ed" opacity="0.5" text-anchor="middle">J</text>
    <text x="34" y="30" font-family="Georgia, serif" font-size="14" font-weight="bold" fill="#63b3ed" opacity="0.5" text-anchor="middle">E</text>
  </g>

  <text x="420" y="280" font-family="Georgia, serif" font-size="72" font-weight="bold" fill="#ffffff">Judi-Expert</text>
  <text x="420" y="350" font-family="sans-serif" font-size="32" fill="#bee3f8">Assistance IA pour experts judiciaires</text>
  <text x="420" y="410" font-family="sans-serif" font-size="24" fill="#e2e8f0" opacity="0.9">Dossiers d'expertise en local - RGPD et AI Act</text>

  <rect x="420" y="450" width="120" height="4" rx="2" fill="#63b3ed"/>
</svg>
